# xmcd CD database file
#
# Track frame offsets:
#	150
#	12120
#	37983
#	52314
#	73415
#	107557
#	125479
#	144223
#	172974
#	224684
#	250842
#	269547
#	298071
#	315859
#	344261
#
# Disc length: 4792 seconds
#
# Revision: 0
# Processed by: cddbd v1.5PL3 Copyright (c) Steve Scherf et al.
# Submitted via: CDex 1.50beta10
#
DISCID=e512b60f
DTITLE=Van Morrison - Nights In November
DYEAR=1900
DGENRE=Blues
TTITLE0=I Will Be There
TTITLE1=What's Wrong With The Picture
TTITLE2=Once In A Blue Mood
TTITLE3=In The Midnight
TTITLE4=I Like That/Kansas City
TTITLE5=Hoochie Coochie Man
TTITLE6=Back On Top
TTITLE7=Philosopher's Stone
TTITLE8=The Healign Has Begun
TTITLE9=Gloria
TTITLE10=Whining Boy Moan
TTITLE11=Little Village
TTITLE12=Have I Told You Lately (Las Vegas Version)
TTITLE13=Goldfish Bowl
TTITLE14=Stop Drinking
EXTD=
EXTT0=
EXTT1=
EXTT2=
EXTT3=
EXTT4=
EXTT5=
EXTT6=
EXTT7=
EXTT8=
EXTT9=
EXTT10=
EXTT11=
EXTT12=
EXTT13=
EXTT14=
PLAYORDER=
